<?xml version="1.0" encoding="UTF-8" standalone="no"?>
<!-- Created with Inkscape (http://www.inkscape.org/) -->

<svg
   xmlns:dc="http://purl.org/dc/elements/1.1/"
   xmlns:cc="http://creativecommons.org/ns#"
   xmlns:rdf="http://www.w3.org/1999/02/22-rdf-syntax-ns#"
   xmlns:svg="http://www.w3.org/2000/svg"
   xmlns="http://www.w3.org/2000/svg"
   xmlns:sodipodi="http://sodipodi.sourceforge.net/DTD/sodipodi-0.dtd"
   xmlns:inkscape="http://www.inkscape.org/namespaces/inkscape"
   version="1.1"
   id="svg815"
   xml:space="preserve"
   width="793.70074"
   height="1122.5197"
   viewBox="0 0 793.70074 1122.5197"
   sodipodi:docname="footrest.svg"
   inkscape:version="0.92.2 (5c3e80d, 2017-08-06)"><metadata
     id="metadata821"><rdf:RDF><cc:Work
         rdf:about=""><dc:format>image/svg+xml</dc:format><dc:type
           rdf:resource="http://purl.org/dc/dcmitype/StillImage" /><dc:title></dc:title></cc:Work></rdf:RDF></metadata><defs
     id="defs819" /><sodipodi:namedview
     pagecolor="#ffffff"
     bordercolor="#666666"
     borderopacity="1"
     objecttolerance="10"
     gridtolerance="10"
     guidetolerance="10"
     inkscape:pageopacity="0"
     inkscape:pageshadow="2"
     inkscape:window-width="1920"
     inkscape:window-height="1057"
     id="namedview817"
     showgrid="false"
     showguides="false"
     inkscape:zoom="0.79107746"
     inkscape:cx="396.85037"
     inkscape:cy="561.25983"
     inkscape:window-x="2671"
     inkscape:window-y="16"
     inkscape:window-maximized="1"
     inkscape:current-layer="g823" /><g
     id="g823"
     inkscape:groupmode="layer"
     inkscape:label="footrest"
     transform="matrix(1.3333333,0,0,1.3333333,0,3.3396326e-5)"><path
       inkscape:connector-curvature="0"
       id="path827"
       style="fill:#ffffff;fill-opacity:1;fill-rule:nonzero;stroke:none"
       d="m 45.379,416.496 c 0,0 -3.676,48.086 26.234,122.082 18.426,45.574 31.157,66.16 60.032,96.5 32.832,34.5 43.929,42.449 78.168,66.824 47.761,34.004 129.726,67.133 129.726,67.133" /><g
       id="g829"><path
         inkscape:connector-curvature="0"
         id="path831"
         style="fill:none;stroke:#000000;stroke-width:2.8505609;stroke-linecap:round;stroke-linejoin:miter;stroke-miterlimit:4;stroke-dasharray:none;stroke-opacity:0.96984899"
         d="m 45.379,416.496 c 0,0 -3.676,48.086 26.234,122.082 18.426,45.574 31.157,66.16 60.032,96.5 32.832,34.5 43.929,42.449 78.168,66.824 47.761,34.004 129.726,67.133 129.726,67.133" /></g><path
       inkscape:connector-curvature="0"
       id="path833"
       style="fill:#ffffff;fill-opacity:1;fill-rule:nonzero;stroke:none"
       d="m 45.379,415.781 c 0,0 -3.676,-48.086 26.234,-122.078 18.426,-45.574 31.157,-66.16 60.032,-96.504 32.832,-34.496 43.929,-42.445 78.168,-66.82 47.761,-34.004 129.726,-67.133 129.726,-67.133" /><g
       id="g835"><path
         inkscape:connector-curvature="0"
         id="path837"
         style="fill:none;stroke:#000000;stroke-width:2.8505609;stroke-linecap:round;stroke-linejoin:miter;stroke-miterlimit:4;stroke-dasharray:none;stroke-opacity:0.96984899"
         d="m 45.379,415.781 c 0,0 -3.676,-48.086 26.234,-122.078 18.426,-45.574 31.157,-66.16 60.032,-96.504 32.832,-34.496 43.929,-42.445 78.168,-66.82 47.761,-34.004 129.726,-67.133 129.726,-67.133" /></g><g
       id="g839"><path
         inkscape:connector-curvature="0"
         id="path841"
         style="fill:none;stroke:#000000;stroke-width:2.8505609;stroke-linecap:butt;stroke-linejoin:miter;stroke-miterlimit:4;stroke-dasharray:none;stroke-opacity:0.96984899"
         d="M 339.496,768.703 H 524.289 V 63.578 H 339.496" /></g><path
       inkscape:connector-curvature="0"
       id="path843"
       style="fill:#000000;fill-opacity:1;fill-rule:nonzero;stroke:none"
       d="M 543.07,375.211 V 360.32 h 3.078 c 0.875,1.032 1.75,2.067 2.625,3.11 0.883,1.039 1.766,2.008 2.641,2.906 1.82,1.883 3.27,3.176 4.344,3.875 1.07,0.707 2.226,1.062 3.469,1.062 1.144,0 2.035,-0.382 2.671,-1.14 0.645,-0.75 0.969,-1.797 0.969,-3.141 0,-0.898 -0.156,-1.871 -0.469,-2.922 -0.312,-1.043 -0.793,-2.058 -1.437,-3.047 v -0.156 h 3.078 c 0.344,0.696 0.656,1.629 0.938,2.797 0.281,1.164 0.421,2.297 0.421,3.391 0,2.258 -0.543,4.031 -1.625,5.312 -1.074,1.281 -2.539,1.922 -4.39,1.922 -0.836,0 -1.61,-0.109 -2.328,-0.328 -0.719,-0.211 -1.403,-0.523 -2.047,-0.938 -0.617,-0.386 -1.219,-0.839 -1.813,-1.359 -0.586,-0.512 -1.23,-1.137 -1.937,-1.875 -1.031,-1.055 -2.031,-2.141 -3,-3.266 -0.961,-1.125 -1.852,-2.171 -2.672,-3.14 v 11.828 z" /><g
       transform="matrix(0,1,-0.994677,0,4.5,0)"
       id="g845"><path
         inkscape:connector-curvature="0"
         id="path847"
         style="fill:none;stroke:#000000;stroke-width:0.756226;stroke-linecap:butt;stroke-linejoin:miter;stroke-miterlimit:4;stroke-dasharray:none;stroke-opacity:0.96984899"
         d="M 375.211,-541.452 H 360.32 v -3.095 c 1.032,-0.88 2.067,-1.759 3.11,-2.639 1.039,-0.888 2.008,-1.775 2.906,-2.655 1.883,-1.83 3.176,-3.287 3.875,-4.367 0.707,-1.076 1.062,-2.238 1.062,-3.487 0,-1.151 -0.382,-2.046 -1.14,-2.686 -0.75,-0.648 -1.797,-0.974 -3.141,-0.974 -0.898,0 -1.871,0.157 -2.922,0.471 -1.043,0.314 -2.058,0.797 -3.047,1.445 h -0.156 v -3.094 c 0.696,-0.346 1.629,-0.66 2.797,-0.943 1.164,-0.283 2.297,-0.424 3.391,-0.424 2.258,0 4.031,0.546 5.312,1.634 1.281,1.08 1.922,2.552 1.922,4.414 0,0.84 -0.109,1.618 -0.328,2.34 -0.211,0.723 -0.523,1.41 -0.938,2.058 -0.386,0.621 -0.839,1.226 -1.359,1.822 -0.512,0.59 -1.137,1.237 -1.875,1.948 -1.055,1.037 -2.141,2.042 -3.266,3.016 -1.125,0.966 -2.171,1.862 -3.14,2.687 h 11.828 z" /></g><path
       inkscape:connector-curvature="0"
       id="path849"
       style="fill:#000000;fill-opacity:1;fill-rule:nonzero;stroke:none"
       d="m 550.023,394.301 c -1.023,0 -2,-0.188 -2.937,-0.563 -0.93,-0.375 -1.711,-0.89 -2.344,-1.547 -0.687,-0.711 -1.215,-1.554 -1.578,-2.531 -0.363,-0.98 -0.547,-2.117 -0.547,-3.406 0,-1.199 0.125,-2.356 0.375,-3.469 0.25,-1.105 0.551,-2.043 0.906,-2.812 h 3.094 v 0.203 c -0.512,0.812 -0.945,1.754 -1.297,2.828 -0.355,1.082 -0.531,2.148 -0.531,3.203 0,0.695 0.094,1.375 0.281,2.031 0.196,0.657 0.539,1.239 1.032,1.75 0.425,0.426 0.929,0.75 1.515,0.969 0.582,0.227 1.266,0.344 2.047,0.344 0.75,0 1.383,-0.133 1.906,-0.391 0.52,-0.262 0.938,-0.625 1.25,-1.094 0.375,-0.511 0.633,-1.136 0.782,-1.875 0.156,-0.73 0.234,-1.546 0.234,-2.453 0,-0.867 -0.063,-1.699 -0.188,-2.5 -0.117,-0.804 -0.23,-1.496 -0.343,-2.078 h 11.265 v 13.235 h -2.562 V 383.77 h -5.828 c 0.039,0.414 0.07,0.843 0.093,1.281 0.02,0.445 0.032,0.836 0.032,1.172 0,1.187 -0.106,2.226 -0.313,3.125 -0.199,0.894 -0.554,1.718 -1.062,2.468 -0.532,0.789 -1.227,1.399 -2.078,1.829 -0.856,0.437 -1.922,0.656 -3.204,0.656 z" /><g
       transform="matrix(0,1,-0.994677,0,4.5,0)"
       id="g851"><path
         inkscape:connector-curvature="0"
         id="path853"
         style="fill:none;stroke:#000000;stroke-width:0.756226;stroke-linecap:butt;stroke-linejoin:miter;stroke-miterlimit:4;stroke-dasharray:none;stroke-opacity:0.96984899"
         d="m 394.301,-548.443 c 0,1.029 -0.188,2.011 -0.563,2.954 -0.375,0.934 -0.89,1.72 -1.547,2.356 -0.711,0.691 -1.554,1.221 -2.531,1.586 -0.98,0.366 -2.117,0.55 -3.406,0.55 -1.199,0 -2.356,-0.126 -3.469,-0.377 -1.105,-0.251 -2.043,-0.554 -2.812,-0.911 v -3.11 h 0.203 c 0.812,0.514 1.754,0.95 2.828,1.304 1.082,0.357 2.148,0.534 3.203,0.534 0.695,0 1.375,-0.095 2.031,-0.283 0.657,-0.196 1.239,-0.542 1.75,-1.037 0.426,-0.428 0.75,-0.935 0.969,-1.524 0.227,-0.585 0.344,-1.272 0.344,-2.057 0,-0.754 -0.133,-1.391 -0.391,-1.917 -0.262,-0.522 -0.625,-0.942 -1.094,-1.257 -0.511,-0.377 -1.136,-0.636 -1.875,-0.785 -0.73,-0.157 -1.546,-0.236 -2.453,-0.236 -0.867,0 -1.699,0.063 -2.5,0.189 -0.804,0.118 -1.496,0.232 -2.078,0.345 v -11.325 h 13.235 v 2.576 H 383.77 v 5.859 c 0.414,-0.039 0.843,-0.071 1.281,-0.094 0.445,-0.02 0.836,-0.032 1.172,-0.032 1.187,0 2.226,0.106 3.125,0.315 0.894,0.2 1.718,0.557 2.468,1.068 0.789,0.534 1.399,1.233 1.829,2.089 0.437,0.86 0.656,1.932 0.656,3.22 z" /></g><path
       inkscape:connector-curvature="0"
       id="path855"
       style="fill:#000000;fill-opacity:1;fill-rule:nonzero;stroke:none"
       d="m 554.023,413.699 c -3.929,0 -6.812,-0.621 -8.656,-1.859 -1.836,-1.231 -2.75,-3.149 -2.75,-5.75 0,-2.637 0.926,-4.563 2.781,-5.781 1.864,-1.211 4.727,-1.813 8.594,-1.813 3.883,0 6.754,0.613 8.61,1.844 1.863,1.226 2.796,3.144 2.796,5.75 0,2.644 -0.949,4.57 -2.843,5.781 -1.887,1.219 -4.731,1.828 -8.532,1.828 z m -6.671,-3.875 c 0.789,0.344 1.722,0.571 2.796,0.688 1.071,0.125 2.364,0.187 3.875,0.187 1.489,0 2.782,-0.062 3.875,-0.187 1.094,-0.117 2.024,-0.352 2.797,-0.703 0.75,-0.344 1.313,-0.821 1.688,-1.422 0.383,-0.594 0.578,-1.36 0.578,-2.297 0,-0.93 -0.195,-1.695 -0.578,-2.297 -0.375,-0.605 -0.949,-1.086 -1.719,-1.438 -0.73,-0.335 -1.68,-0.562 -2.844,-0.687 -1.168,-0.125 -2.445,-0.188 -3.828,-0.188 -1.531,0 -2.812,0.051 -3.844,0.157 -1.023,0.113 -1.945,0.347 -2.765,0.703 -0.762,0.32 -1.344,0.781 -1.75,1.375 -0.399,0.601 -0.594,1.394 -0.594,2.375 0,0.926 0.188,1.691 0.563,2.297 0.382,0.613 0.968,1.093 1.75,1.437 z" /><g
       transform="matrix(0,1,-0.994677,0,4.5,0)"
       id="g857"><path
         inkscape:connector-curvature="0"
         id="path859"
         style="fill:none;stroke:#000000;stroke-width:0.756226;stroke-linecap:butt;stroke-linejoin:miter;stroke-miterlimit:4;stroke-dasharray:none;stroke-opacity:0.96984899"
         d="m 413.699,-552.464 c 0,3.951 -0.621,6.849 -1.859,8.702 -1.231,1.846 -3.149,2.765 -5.75,2.765 -2.637,0 -4.563,-0.931 -5.781,-2.796 -1.211,-1.873 -1.813,-4.752 -1.813,-8.64 0,-3.903 0.613,-6.79 1.844,-8.655 1.226,-1.873 3.144,-2.812 5.75,-2.812 2.644,0 4.57,0.954 5.781,2.859 1.219,1.897 1.828,4.756 1.828,8.577 z m -3.875,6.707 c 0.344,-0.793 0.571,-1.731 0.688,-2.811 0.125,-1.076 0.187,-2.376 0.187,-3.896 0,-1.496 -0.062,-2.796 -0.187,-3.896 -0.117,-1.099 -0.352,-2.034 -0.703,-2.812 -0.344,-0.754 -0.821,-1.319 -1.422,-1.696 -0.594,-0.385 -1.36,-0.581 -2.297,-0.581 -0.93,0 -1.695,0.196 -2.297,0.581 -0.605,0.377 -1.086,0.954 -1.438,1.728 -0.335,0.734 -0.562,1.688 -0.687,2.859 -0.125,1.174 -0.188,2.458 -0.188,3.848 0,1.54 0.051,2.828 0.157,3.865 0.113,1.029 0.347,1.955 0.703,2.78 0.32,0.766 0.781,1.351 1.375,1.759 0.601,0.401 1.394,0.597 2.375,0.597 0.926,0 1.691,-0.188 2.297,-0.565 0.613,-0.385 1.093,-0.974 1.437,-1.76 z" /></g><path
       inkscape:connector-curvature="0"
       id="path861"
       style="fill:#000000;fill-opacity:1;fill-rule:nonzero;stroke:none"
       d="m 543.07,442.539 v -2.781 h 9.344 c 0.707,0 1.391,-0.031 2.047,-0.094 0.656,-0.062 1.176,-0.199 1.562,-0.406 0.426,-0.231 0.743,-0.559 0.954,-0.985 0.218,-0.418 0.328,-1.027 0.328,-1.828 0,-0.773 -0.196,-1.547 -0.578,-2.328 -0.387,-0.781 -0.875,-1.558 -1.469,-2.328 -0.231,0.02 -0.496,0.039 -0.797,0.063 -0.293,0.019 -0.59,0.031 -0.891,0.031 h -10.5 v -2.781 h 9.344 c 0.727,0 1.414,-0.032 2.063,-0.094 0.656,-0.063 1.175,-0.199 1.562,-0.406 0.426,-0.219 0.742,-0.543 0.953,-0.969 0.207,-0.43 0.313,-1.039 0.313,-1.828 0,-0.762 -0.188,-1.528 -0.563,-2.297 -0.367,-0.762 -0.84,-1.516 -1.422,-2.266 h -12.25 v -2.781 h 16.407 v 2.781 h -1.813 c 0.707,0.863 1.266,1.723 1.672,2.578 0.406,0.864 0.609,1.785 0.609,2.766 0,1.125 -0.242,2.078 -0.718,2.859 -0.469,0.782 -1.122,1.364 -1.954,1.75 0.946,1.125 1.629,2.145 2.047,3.063 0.414,0.926 0.625,1.914 0.625,2.969 0,1.812 -0.547,3.148 -1.64,4.015 -1.094,0.863 -2.621,1.297 -4.578,1.297 z" /><g
       transform="matrix(0,1,-0.994677,0,4.5,0)"
       id="g863"><path
         inkscape:connector-curvature="0"
         id="path865"
         style="fill:none;stroke:#000000;stroke-width:0.756226;stroke-linecap:butt;stroke-linejoin:miter;stroke-miterlimit:4;stroke-dasharray:none;stroke-opacity:0.96984899"
         d="m 442.539,-541.452 h -2.781 v -9.394 c 0,-0.711 -0.031,-1.398 -0.094,-2.058 -0.062,-0.66 -0.199,-1.182 -0.406,-1.571 -0.231,-0.428 -0.559,-0.746 -0.985,-0.958 -0.418,-0.22 -1.027,-0.33 -1.828,-0.33 -0.773,0 -1.547,0.196 -2.328,0.581 -0.781,0.389 -1.558,0.88 -2.328,1.477 0.02,0.232 0.039,0.499 0.063,0.801 0.019,0.295 0.031,0.593 0.031,0.895 v 10.557 h -2.781 v -9.394 c 0,-0.731 -0.032,-1.422 -0.094,-2.074 -0.063,-0.659 -0.199,-1.182 -0.406,-1.571 -0.219,-0.428 -0.543,-0.746 -0.969,-0.958 -0.43,-0.208 -1.039,-0.314 -1.828,-0.314 -0.762,0 -1.528,0.189 -2.297,0.566 -0.762,0.369 -1.516,0.844 -2.266,1.429 v 12.316 h -2.781 v -16.494 h 2.781 v 1.822 c 0.863,-0.711 1.723,-1.273 2.578,-1.681 0.864,-0.408 1.785,-0.613 2.766,-0.613 1.125,0 2.078,0.244 2.859,0.723 0.782,0.471 1.364,1.127 1.75,1.963 1.125,-0.95 2.145,-1.637 3.063,-2.057 0.926,-0.417 1.914,-0.629 2.969,-0.629 1.812,0 3.148,0.55 4.015,1.65 0.863,1.099 1.297,2.635 1.297,4.602 z" /></g><path
       inkscape:connector-curvature="0"
       id="path867"
       style="fill:#000000;fill-opacity:1;fill-rule:nonzero;stroke:none"
       d="m 543.07,471.961 v -2.781 h 9.344 c 0.707,0 1.391,-0.032 2.047,-0.094 0.656,-0.063 1.176,-0.199 1.562,-0.406 0.426,-0.231 0.743,-0.559 0.954,-0.985 0.218,-0.418 0.328,-1.027 0.328,-1.828 0,-0.773 -0.196,-1.547 -0.578,-2.328 -0.387,-0.781 -0.875,-1.559 -1.469,-2.328 -0.231,0.019 -0.496,0.039 -0.797,0.062 -0.293,0.02 -0.59,0.032 -0.891,0.032 h -10.5 v -2.782 h 9.344 c 0.727,0 1.414,-0.031 2.063,-0.093 0.656,-0.063 1.175,-0.2 1.562,-0.407 0.426,-0.218 0.742,-0.543 0.953,-0.968 0.207,-0.43 0.313,-1.039 0.313,-1.828 0,-0.762 -0.188,-1.528 -0.563,-2.297 -0.367,-0.762 -0.84,-1.516 -1.422,-2.266 h -12.25 v -2.781 h 16.407 v 2.781 h -1.813 c 0.707,0.863 1.266,1.723 1.672,2.578 0.406,0.863 0.609,1.785 0.609,2.766 0,1.125 -0.242,2.078 -0.718,2.859 -0.469,0.781 -1.122,1.363 -1.954,1.75 0.946,1.125 1.629,2.145 2.047,3.063 0.414,0.925 0.625,1.914 0.625,2.968 0,1.813 -0.547,3.149 -1.64,4.016 -1.094,0.863 -2.621,1.297 -4.578,1.297 z" /><g
       transform="matrix(0,1,-0.994677,0,4.5,0)"
       id="g869"><path
         inkscape:connector-curvature="0"
         id="path871"
         style="fill:none;stroke:#000000;stroke-width:0.756226;stroke-linecap:butt;stroke-linejoin:miter;stroke-miterlimit:4;stroke-dasharray:none;stroke-opacity:0.96984899"
         d="m 471.961,-541.452 h -2.781 v -9.394 c 0,-0.711 -0.032,-1.398 -0.094,-2.058 -0.063,-0.66 -0.199,-1.182 -0.406,-1.571 -0.231,-0.428 -0.559,-0.746 -0.985,-0.958 -0.418,-0.22 -1.027,-0.33 -1.828,-0.33 -0.773,0 -1.547,0.196 -2.328,0.581 -0.781,0.389 -1.559,0.88 -2.328,1.477 0.019,0.232 0.039,0.499 0.062,0.801 0.02,0.295 0.032,0.593 0.032,0.895 v 10.557 h -2.782 v -9.394 c 0,-0.731 -0.031,-1.422 -0.093,-2.074 -0.063,-0.659 -0.2,-1.182 -0.407,-1.571 -0.218,-0.428 -0.543,-0.746 -0.968,-0.958 -0.43,-0.208 -1.039,-0.314 -1.828,-0.314 -0.762,0 -1.528,0.189 -2.297,0.566 -0.762,0.369 -1.516,0.844 -2.266,1.429 v 12.316 h -2.781 v -16.494 h 2.781 v 1.822 c 0.863,-0.711 1.723,-1.273 2.578,-1.681 0.863,-0.408 1.785,-0.613 2.766,-0.613 1.125,0 2.078,0.244 2.859,0.723 0.781,0.471 1.363,1.127 1.75,1.963 1.125,-0.95 2.145,-1.637 3.063,-2.057 0.925,-0.417 1.914,-0.629 2.968,-0.629 1.813,0 3.149,0.55 4.016,1.65 0.863,1.099 1.297,2.635 1.297,4.602 z" /></g><path
       inkscape:connector-curvature="0"
       id="path873"
       style="fill:#000000;fill-opacity:1;fill-rule:nonzero;stroke:none"
       d="m 256.75,408.184 h -11.906 v -2.235 h 4.578 v -14.656 h -4.578 v -2 c 0.613,0 1.273,-0.051 1.984,-0.156 0.707,-0.102 1.242,-0.254 1.61,-0.453 0.457,-0.239 0.816,-0.547 1.078,-0.922 0.257,-0.383 0.41,-0.895 0.453,-1.532 h 2.281 v 19.719 h 4.5 z" /><g
       transform="scale(1,0.994677)"
       id="g875"><path
         inkscape:connector-curvature="0"
         id="path877"
         style="fill:none;stroke:#000000;stroke-width:0.756226;stroke-linecap:butt;stroke-linejoin:miter;stroke-miterlimit:4;stroke-dasharray:none;stroke-opacity:0.96984899"
         d="m 256.75,410.368 h -11.906 v -2.246 h 4.578 v -14.735 h -4.578 v -2.011 c 0.613,0 1.273,-0.051 1.984,-0.157 0.707,-0.102 1.242,-0.255 1.61,-0.455 0.457,-0.24 0.816,-0.55 1.078,-0.927 0.257,-0.385 0.41,-0.9 0.453,-1.54 h 2.281 v 19.825 h 4.5 z" /></g><path
       inkscape:connector-curvature="0"
       id="path879"
       style="fill:#000000;fill-opacity:1;fill-rule:nonzero;stroke:none"
       d="m 277.324,389.574 -9.953,18.61 h -3.172 l 10.594,-19.313 h -12.516 v -2.562 h 15.047 z" /><g
       transform="scale(1,0.994677)"
       id="g881"><path
         inkscape:connector-curvature="0"
         id="path883"
         style="fill:none;stroke:#000000;stroke-width:0.756226;stroke-linecap:butt;stroke-linejoin:miter;stroke-miterlimit:4;stroke-dasharray:none;stroke-opacity:0.96984899"
         d="m 277.324,391.659 -9.953,18.709 h -3.172 l 10.594,-19.416 h -12.516 v -2.576 h 15.047 z" /></g><path
       inkscape:connector-curvature="0"
       id="path885"
       style="fill:#000000;fill-opacity:1;fill-rule:nonzero;stroke:none"
       d="m 296.488,397.23 c 0,3.93 -0.621,6.813 -1.859,8.657 -1.231,1.836 -3.149,2.75 -5.75,2.75 -2.637,0 -4.563,-0.926 -5.781,-2.782 -1.211,-1.863 -1.813,-4.726 -1.813,-8.593 0,-3.883 0.613,-6.754 1.844,-8.61 1.226,-1.863 3.144,-2.797 5.75,-2.797 2.644,0 4.57,0.95 5.781,2.844 1.219,1.887 1.828,4.731 1.828,8.531 z m -3.875,6.672 c 0.344,-0.789 0.571,-1.722 0.688,-2.797 0.125,-1.07 0.187,-2.363 0.187,-3.875 0,-1.488 -0.062,-2.781 -0.187,-3.875 -0.117,-1.093 -0.352,-2.023 -0.703,-2.796 -0.344,-0.75 -0.821,-1.313 -1.422,-1.688 -0.594,-0.383 -1.36,-0.578 -2.297,-0.578 -0.93,0 -1.695,0.195 -2.297,0.578 -0.605,0.375 -1.086,0.949 -1.437,1.719 -0.336,0.73 -0.563,1.68 -0.688,2.844 -0.125,1.168 -0.187,2.445 -0.187,3.828 0,1.531 0.05,2.812 0.156,3.843 0.113,1.024 0.347,1.946 0.703,2.766 0.32,0.762 0.781,1.344 1.375,1.75 0.601,0.399 1.394,0.594 2.375,0.594 0.926,0 1.691,-0.188 2.297,-0.563 0.613,-0.382 1.094,-0.968 1.437,-1.75 z" /><g
       transform="scale(1,0.994677)"
       id="g887"><path
         inkscape:connector-curvature="0"
         id="path889"
         style="fill:none;stroke:#000000;stroke-width:0.756226;stroke-linecap:butt;stroke-linejoin:miter;stroke-miterlimit:4;stroke-dasharray:none;stroke-opacity:0.96984899"
         d="m 296.488,399.356 c 0,3.951 -0.621,6.849 -1.859,8.703 -1.231,1.846 -3.149,2.764 -5.75,2.764 -2.637,0 -4.563,-0.93 -5.781,-2.796 -1.211,-1.873 -1.813,-4.752 -1.813,-8.639 0,-3.904 0.613,-6.79 1.844,-8.656 1.226,-1.873 3.144,-2.812 5.75,-2.812 2.644,0 4.57,0.955 5.781,2.859 1.219,1.897 1.828,4.756 1.828,8.577 z m -3.875,6.708 c 0.344,-0.794 0.571,-1.732 0.688,-2.812 0.125,-1.076 0.187,-2.376 0.187,-3.896 0,-1.496 -0.062,-2.796 -0.187,-3.896 -0.117,-1.099 -0.352,-2.034 -0.703,-2.811 -0.344,-0.754 -0.821,-1.32 -1.422,-1.697 -0.594,-0.385 -1.36,-0.581 -2.297,-0.581 -0.93,0 -1.695,0.196 -2.297,0.581 -0.605,0.377 -1.086,0.954 -1.437,1.728 -0.336,0.734 -0.563,1.689 -0.688,2.859 -0.125,1.174 -0.187,2.458 -0.187,3.849 0,1.539 0.05,2.827 0.156,3.864 0.113,1.029 0.347,1.956 0.703,2.78 0.32,0.766 0.781,1.351 1.375,1.76 0.601,0.4 1.394,0.597 2.375,0.597 0.926,0 1.691,-0.189 2.297,-0.566 0.613,-0.385 1.094,-0.974 1.437,-1.759 z" /></g><path
       inkscape:connector-curvature="0"
       id="path891"
       style="fill:#000000;fill-opacity:1;fill-rule:nonzero;stroke:none"
       d="m 325.328,408.184 h -2.781 v -9.344 c 0,-0.707 -0.031,-1.391 -0.094,-2.047 -0.062,-0.656 -0.199,-1.176 -0.406,-1.563 -0.231,-0.425 -0.559,-0.742 -0.984,-0.953 -0.418,-0.218 -1.028,-0.328 -1.829,-0.328 -0.773,0 -1.546,0.196 -2.328,0.578 -0.781,0.387 -1.558,0.875 -2.328,1.469 0.02,0.231 0.039,0.496 0.063,0.797 0.019,0.293 0.031,0.59 0.031,0.891 v 10.5 h -2.781 v -9.344 c 0,-0.727 -0.032,-1.414 -0.094,-2.063 -0.063,-0.656 -0.199,-1.175 -0.406,-1.562 -0.219,-0.426 -0.543,-0.742 -0.969,-0.953 -0.43,-0.207 -1.039,-0.313 -1.828,-0.313 -0.762,0 -1.528,0.188 -2.297,0.563 -0.762,0.367 -1.516,0.84 -2.266,1.422 v 12.25 h -2.781 v -16.407 h 2.781 v 1.813 c 0.864,-0.707 1.723,-1.266 2.578,-1.672 0.864,-0.406 1.786,-0.609 2.766,-0.609 1.125,0 2.078,0.242 2.859,0.718 0.782,0.469 1.364,1.121 1.75,1.953 1.125,-0.945 2.145,-1.628 3.063,-2.046 0.926,-0.414 1.914,-0.625 2.969,-0.625 1.812,0 3.148,0.546 4.015,1.64 0.864,1.094 1.297,2.621 1.297,4.578 z" /><g
       transform="scale(1,0.994677)"
       id="g893"><path
         inkscape:connector-curvature="0"
         id="path895"
         style="fill:none;stroke:#000000;stroke-width:0.756226;stroke-linecap:butt;stroke-linejoin:miter;stroke-miterlimit:4;stroke-dasharray:none;stroke-opacity:0.96984899"
         d="m 325.328,410.368 h -2.781 v -9.394 c 0,-0.711 -0.031,-1.398 -0.094,-2.058 -0.062,-0.659 -0.199,-1.182 -0.406,-1.571 -0.231,-0.428 -0.559,-0.746 -0.984,-0.958 -0.418,-0.22 -1.028,-0.33 -1.829,-0.33 -0.773,0 -1.546,0.197 -2.328,0.582 -0.781,0.388 -1.558,0.879 -2.328,1.476 0.02,0.232 0.039,0.499 0.063,0.801 0.019,0.295 0.031,0.593 0.031,0.896 v 10.556 h -2.781 v -9.394 c 0,-0.73 -0.032,-1.421 -0.094,-2.073 -0.063,-0.66 -0.199,-1.182 -0.406,-1.571 -0.219,-0.428 -0.543,-0.746 -0.969,-0.958 -0.43,-0.209 -1.039,-0.315 -1.828,-0.315 -0.762,0 -1.528,0.189 -2.297,0.566 -0.762,0.369 -1.516,0.844 -2.266,1.429 v 12.316 h -2.781 v -16.494 h 2.781 v 1.822 c 0.864,-0.711 1.723,-1.272 2.578,-1.681 0.864,-0.408 1.786,-0.612 2.766,-0.612 1.125,0 2.078,0.243 2.859,0.722 0.782,0.471 1.364,1.127 1.75,1.964 1.125,-0.951 2.145,-1.638 3.063,-2.058 0.926,-0.416 1.914,-0.628 2.969,-0.628 1.812,0 3.148,0.549 4.015,1.649 0.864,1.1 1.297,2.635 1.297,4.603 z" /></g><path
       inkscape:connector-curvature="0"
       id="path897"
       style="fill:#000000;fill-opacity:1;fill-rule:nonzero;stroke:none"
       d="m 354.75,408.184 h -2.781 v -9.344 c 0,-0.707 -0.031,-1.391 -0.094,-2.047 -0.062,-0.656 -0.199,-1.176 -0.406,-1.563 -0.231,-0.425 -0.559,-0.742 -0.985,-0.953 -0.418,-0.218 -1.027,-0.328 -1.828,-0.328 -0.773,0 -1.547,0.196 -2.328,0.578 -0.781,0.387 -1.558,0.875 -2.328,1.469 0.02,0.231 0.039,0.496 0.063,0.797 0.019,0.293 0.031,0.59 0.031,0.891 v 10.5 h -2.781 v -9.344 c 0,-0.727 -0.032,-1.414 -0.094,-2.063 -0.063,-0.656 -0.199,-1.175 -0.406,-1.562 -0.219,-0.426 -0.543,-0.742 -0.969,-0.953 -0.43,-0.207 -1.039,-0.313 -1.828,-0.313 -0.762,0 -1.528,0.188 -2.297,0.563 -0.762,0.367 -1.516,0.84 -2.266,1.422 v 12.25 h -2.781 v -16.407 h 2.781 v 1.813 c 0.863,-0.707 1.723,-1.266 2.578,-1.672 0.864,-0.406 1.785,-0.609 2.766,-0.609 1.125,0 2.078,0.242 2.859,0.718 0.782,0.469 1.364,1.121 1.75,1.953 1.125,-0.945 2.145,-1.628 3.063,-2.046 0.926,-0.414 1.914,-0.625 2.969,-0.625 1.812,0 3.148,0.546 4.015,1.64 0.863,1.094 1.297,2.621 1.297,4.578 z" /><g
       transform="scale(1,0.994677)"
       id="g899"><path
         inkscape:connector-curvature="0"
         id="path901"
         style="fill:none;stroke:#000000;stroke-width:0.756226;stroke-linecap:butt;stroke-linejoin:miter;stroke-miterlimit:4;stroke-dasharray:none;stroke-opacity:0.96984899"
         d="m 354.75,410.368 h -2.781 v -9.394 c 0,-0.711 -0.031,-1.398 -0.094,-2.058 -0.062,-0.659 -0.199,-1.182 -0.406,-1.571 -0.231,-0.428 -0.559,-0.746 -0.985,-0.958 -0.418,-0.22 -1.027,-0.33 -1.828,-0.33 -0.773,0 -1.547,0.197 -2.328,0.582 -0.781,0.388 -1.558,0.879 -2.328,1.476 0.02,0.232 0.039,0.499 0.063,0.801 0.019,0.295 0.031,0.593 0.031,0.896 v 10.556 h -2.781 v -9.394 c 0,-0.73 -0.032,-1.421 -0.094,-2.073 -0.063,-0.66 -0.199,-1.182 -0.406,-1.571 -0.219,-0.428 -0.543,-0.746 -0.969,-0.958 -0.43,-0.209 -1.039,-0.315 -1.828,-0.315 -0.762,0 -1.528,0.189 -2.297,0.566 -0.762,0.369 -1.516,0.844 -2.266,1.429 v 12.316 h -2.781 v -16.494 h 2.781 v 1.822 c 0.863,-0.711 1.723,-1.272 2.578,-1.681 0.864,-0.408 1.785,-0.612 2.766,-0.612 1.125,0 2.078,0.243 2.859,0.722 0.782,0.471 1.364,1.127 1.75,1.964 1.125,-0.951 2.145,-1.638 3.063,-2.058 0.926,-0.416 1.914,-0.628 2.969,-0.628 1.812,0 3.148,0.549 4.015,1.649 0.863,1.1 1.297,2.635 1.297,4.603 z" /></g><g
       id="g903"><path
         inkscape:connector-curvature="0"
         id="path905"
         style="fill:none;stroke:#000000;stroke-width:0.75;stroke-linecap:butt;stroke-linejoin:miter;stroke-miterlimit:4;stroke-dasharray:none;stroke-opacity:1"
         d="M 45.379,415.781 H 521.785" /></g><g
       id="g907"
       transform="translate(-13.5)"><path
         inkscape:connector-curvature="0"
         id="path909"
         style="fill:none;stroke:#000000;stroke-width:0.75;stroke-linecap:butt;stroke-linejoin:miter;stroke-miterlimit:4;stroke-dasharray:none;stroke-opacity:1"
         d="M 549.645,65.105 V 769.031" /></g><text
       xml:space="preserve"
       style="font-style:normal;font-weight:normal;font-size:30px;line-height:1.25;font-family:sans-serif;letter-spacing:0px;word-spacing:0px;fill:#000000;fill-opacity:1;stroke:none;stroke-width:0.75"
       x="307.73026"
       y="479.72543"
       id="text4602"><tspan
         sodipodi:role="line"
         id="tspan4600"
         x="307.73026"
         y="479.72543"
         style="text-align:center;text-anchor:middle;stroke-width:0.75">This page is A4</tspan><tspan
         sodipodi:role="line"
         x="307.73026"
         y="517.22546"
         style="text-align:center;text-anchor:middle;stroke-width:0.75"
         id="tspan4604">Print at 100% to</tspan><tspan
         sodipodi:role="line"
         x="307.73026"
         y="554.72546"
         style="text-align:center;text-anchor:middle;stroke-width:0.75"
         id="tspan4606">preserve dimensions</tspan></text>
<text
       xml:space="preserve"
       style="font-style:normal;font-weight:normal;font-size:30px;line-height:1.25;font-family:sans-serif;text-align:center;letter-spacing:0px;word-spacing:0px;text-anchor:middle;fill:#000000;fill-opacity:1;stroke:none;stroke-width:0.75"
       x="301.83051"
       y="110.7781"
       id="text4652"><tspan
         sodipodi:role="line"
         id="tspan4650"
         x="301.83051"
         y="138.14801"
         style="text-align:center;text-anchor:middle;stroke-width:0.75" /><tspan
         sodipodi:role="line"
         x="301.83051"
         y="175.64801"
         style="text-align:center;text-anchor:middle;stroke-width:0.75"
         id="tspan4660">TEMPLATE</tspan><tspan
         sodipodi:role="line"
         x="301.83051"
         y="213.14801"
         style="text-align:center;text-anchor:middle;stroke-width:0.75"
         id="tspan4656">Knysna Vantage Pro</tspan><tspan
         sodipodi:role="line"
         x="307.10394"
         y="250.64801"
         style="text-align:center;text-anchor:middle;stroke-width:0.75"
         id="tspan4668">Angled footrest </tspan><tspan
         sodipodi:role="line"
         x="301.83051"
         y="288.14801"
         style="text-align:center;text-anchor:middle;stroke-width:0.75"
         id="tspan4666">for use with steering pedals</tspan></text>
</g></svg>